<svg width="177" height="91" viewBox="0 0 177 91" fill="none" xmlns="http://www.w3.org/2000/svg">
<g clip-path="url(#clip0_89_1007)">
<path d="M8.70583 90.3916C7.6417 90.3916 6.599 90.2005 5.60808 89.8238C3.81728 89.1418 2.27823 87.8688 1.27838 86.2386C0.496353 84.9656 0.0571342 83.5105 0 82.0125H1.83365C1.89079 83.2016 2.25323 84.3532 2.89063 85.3584C3.88691 86.9296 5.49917 88.0455 7.31496 88.4187C7.77025 88.5115 8.23804 88.5597 8.70583 88.5597C12.4999 88.5597 15.5869 85.4727 15.5869 81.6768C15.5869 77.3096 12.7052 75.567 9.91814 73.8798C8.41123 72.9674 6.85254 72.0247 5.72771 70.6678C4.59752 69.3037 3.95654 67.57 3.77264 65.3757H5.60629C5.81876 67.7539 6.66685 69.3573 8.40587 70.6964C9.30931 71.3927 10.2413 71.9569 11.1412 72.5014C12.8123 73.512 14.3907 74.4672 15.6476 76.1562C16.8225 77.7328 17.4188 79.5914 17.4188 81.6768C17.4188 83.3748 16.9314 85.0192 16.0083 86.4333C14.9906 87.992 13.5372 89.1632 11.8071 89.822C10.8144 90.1988 9.77174 90.3898 8.70583 90.3898V90.3916Z" fill="white"/>
<path d="M49.6799 89.8024L40.6849 68.1825C40.4278 67.5629 39.8939 67.2076 39.2226 67.2076H37.9942C37.3229 67.2076 36.789 67.5629 36.5319 68.1825L27.5369 89.8024H25.5532L34.8411 67.479C35.3803 66.181 36.5891 65.3757 37.9942 65.3757H39.2226C40.6277 65.3757 41.8365 66.181 42.3757 67.479L51.6636 89.8024H49.6799Z" fill="white"/>
<path d="M71.2424 89.8005V78.504H70.8317C69.5819 78.504 68.5053 77.8845 67.8786 76.8061L62.7954 68.002C62.5044 67.4985 62.0045 67.2093 61.4242 67.2093H59.7852V65.3774H61.4242C62.6776 65.3774 63.756 66.0006 64.3827 67.0843L69.4605 75.8794C69.7515 76.3829 70.2514 76.6722 70.8335 76.6722H73.4884C74.0705 76.6722 74.5704 76.3829 74.8614 75.8794L79.9392 67.0843C80.5659 65.9988 81.6444 65.3774 82.8977 65.3774H84.5368V67.2093H82.8977C82.3157 67.2093 81.8158 67.4985 81.5247 68.002L76.4469 76.7971C75.8059 77.8898 74.7329 78.5058 73.4884 78.5058H73.0778V89.8023H71.2441L71.2424 89.8005Z" fill="white"/>
<path d="M105.346 90.3934C98.269 90.3934 92.5127 84.6353 92.5127 77.5596C92.5127 70.4839 98.2708 64.7258 105.346 64.7258C112.422 64.7258 118.18 70.4839 118.18 77.5596C118.18 84.6353 112.422 90.3934 105.346 90.3934ZM105.346 66.5559C99.2795 66.5559 94.3446 71.4909 94.3446 77.5578C94.3446 83.6248 99.2795 88.5597 105.346 88.5597C111.413 88.5597 116.348 83.6248 116.348 77.5578C116.348 71.4909 111.413 66.5559 105.346 66.5559Z" fill="white"/>
<path d="M141.134 89.8006C139.881 89.8006 138.802 89.1775 138.175 88.0919L134.064 80.9716C133.773 80.4681 133.273 80.1789 132.692 80.1789H126.142V78.3452H135.372C138.443 78.3452 140.941 75.8474 140.941 72.7764C140.941 69.7054 138.443 67.2076 135.372 67.2076H126.142V65.3757H135.371C139.452 65.3757 142.773 68.6967 142.773 72.7782C142.773 76.2812 140.279 79.3308 136.844 80.0324C136.644 80.0735 136.44 80.1056 136.233 80.1306L135.728 80.1896L139.761 87.176C140.052 87.6795 140.552 87.9687 141.134 87.9687H142.773V89.8024H141.134V89.8006Z" fill="white"/>
<path d="M175.014 89.8024L166.019 68.1825C165.762 67.5629 165.228 67.2076 164.557 67.2076H163.329C162.657 67.2076 162.123 67.5629 161.866 68.1825L152.871 89.8024H150.888L160.176 67.479C160.715 66.181 161.924 65.3757 163.329 65.3757H164.557C165.962 65.3757 167.171 66.181 167.71 67.479L176.998 89.8024H175.014Z" fill="white"/>
<path d="M128.732 38.3799L130.56 48.764L120.678 45.1664C117.384 46.8804 113.643 47.8463 109.681 47.8463C103.064 47.8463 97.067 45.1467 92.7319 40.792C91.991 40.0457 91.2946 39.253 90.6554 38.412C89.9752 37.5158 89.3539 36.5766 88.8022 35.5893C88.163 34.4537 87.6166 33.2628 87.1685 32.0255C86.3043 29.6294 85.8115 27.0602 85.7633 24.3856C85.7615 24.3767 85.7615 24.366 85.7633 24.3606V24.3481C85.7651 24.2053 85.7687 24.066 85.7687 23.925C85.7687 23.7839 85.7669 23.6411 85.7633 23.5018V23.4893C85.7633 23.4893 85.7615 23.475 85.7633 23.4643C85.6973 20.779 85.0367 18.2437 83.9047 15.9815C83.3298 14.8228 82.6334 13.7372 81.8336 12.7409C78.5608 8.67726 73.5455 6.07765 67.9214 6.07765C58.0639 6.07765 50.0741 14.0675 50.0741 23.925C50.0741 33.7824 58.0639 41.7705 67.9214 41.7705C73.5437 41.7705 78.5608 39.1709 81.8336 35.1072C82.2424 36.1374 82.7156 37.139 83.2387 38.1085C83.7351 39.0316 84.2796 39.9297 84.8724 40.792C80.5373 45.1467 74.54 47.8463 67.9232 47.8463C64.022 47.8463 60.335 46.909 57.0766 45.2414L47.0442 48.8944L48.8957 38.4067C45.8229 34.3823 44 29.3634 44 23.925C44.0018 10.7341 54.7359 0 67.925 0C74.5418 0 80.5391 2.69959 84.8706 7.05965C85.6169 7.80418 86.3079 8.5987 86.9471 9.43607C87.6327 10.327 88.2522 11.2715 88.8057 12.2589C89.4413 13.389 89.9913 14.5853 90.434 15.8226C91.3036 18.2151 91.7946 20.7879 91.8446 23.4625V23.4875C91.8428 23.6304 91.8374 23.7768 91.8374 23.9232C91.8374 24.0696 91.8428 24.2142 91.8446 24.3588V24.3838C91.9106 27.0673 92.5712 29.6044 93.6996 31.8666C94.2727 33.0254 94.9709 34.1073 95.7725 35.1036C99.0452 39.1691 104.061 41.7687 109.685 41.7687C119.54 41.7687 127.532 33.7788 127.532 23.9232C127.532 14.0675 119.539 6.07587 109.685 6.07587C104.062 6.07587 99.0452 8.67547 95.7725 12.7391C95.3619 11.7107 94.8905 10.7091 94.3674 9.73781C93.871 8.81474 93.3265 7.92202 92.7391 7.05965C97.0688 2.69959 103.066 0 109.683 0C122.872 0 133.606 10.7341 133.606 23.9232C133.606 29.3509 131.792 34.3609 128.732 38.3781V38.3799Z" fill="white"/>
</g>
<defs>
<clipPath id="clip0_89_1007">
<rect width="177" height="90.3935" fill="white"/>
</clipPath>
</defs>
</svg>
