<svg width="29" height="26" viewBox="0 0 29 26" fill="none" xmlns="http://www.w3.org/2000/svg">
<g clip-path="url(#clip0_16_124)">
<path d="M8.84099 25.5134C8.29585 25.1724 7.81271 24.751 7.41012 24.2654C6.96729 23.7642 6.55698 23.2384 6.18145 22.6908C5.30019 21.4767 4.60908 20.1499 4.12933 18.751C3.55301 17.126 3.27393 15.5684 3.27393 14.045C3.27393 12.3436 3.66534 10.8583 4.43089 9.61033C4.99837 8.63488 5.83273 7.81972 6.84763 7.24921C7.83118 6.67474 8.9613 6.36037 10.1189 6.33921C10.5242 6.33921 10.9605 6.39446 11.4236 6.50008C11.7563 6.58864 12.1615 6.72839 12.6566 6.90227C13.2865 7.13058 13.633 7.27033 13.7505 7.30446C14.1195 7.43121 14.4297 7.48645 14.6733 7.48645C14.8582 7.48645 15.1192 7.43121 15.4155 7.34671C15.5823 7.29146 15.8968 7.19395 16.347 7.01277C16.7928 6.86002 17.1436 6.72921 17.4227 6.63171C17.8504 6.51308 18.2643 6.40339 18.6332 6.34814C19.0706 6.2833 19.5145 6.26612 19.9561 6.29696C20.7213 6.34399 21.475 6.49647 22.1931 6.74952C23.3674 7.19396 24.317 7.88783 25.0237 8.87421C24.725 9.04735 24.4446 9.24705 24.1865 9.47058C23.6245 9.93905 23.1458 10.489 22.7686 11.0996C22.2755 11.9341 22.0198 12.8742 22.0264 13.8288C22.0445 15.0013 22.3642 16.034 22.9941 16.9269C23.4572 17.5887 24.059 18.1546 24.7628 18.5901C25.1231 18.8184 25.4333 18.9752 25.7305 19.0808C25.5914 19.4871 25.4428 19.8803 25.2674 20.2703C24.8696 21.1449 24.3875 21.9834 23.827 22.7753C23.3276 23.457 22.9362 23.9648 22.639 24.3028C22.1758 24.8187 21.73 25.2128 21.2798 25.4874C20.7847 25.7961 20.1998 25.9611 19.6053 25.9611C19.2027 25.9756 18.8002 25.9298 18.4129 25.8254C18.0803 25.7198 17.7511 25.6052 17.427 25.4744C17.0902 25.3289 16.7428 25.2059 16.3876 25.1063C15.5095 24.8942 14.5888 24.8928 13.7099 25.1023C13.3496 25.1998 13.0031 25.3135 12.6609 25.4533C12.1797 25.6434 11.86 25.771 11.6751 25.8254C11.3061 25.927 10.9233 25.9903 10.5363 26.0115C9.93747 26.0115 9.37929 25.8506 8.8263 25.5248L8.84099 25.5134ZM16.7384 5.5137C15.9556 5.88177 15.2082 6.03858 14.4659 5.98739C14.3493 5.28458 14.4659 4.56552 14.7761 3.77821C15.0402 3.1112 15.4304 2.4946 15.9279 1.95821C16.4533 1.39354 17.0907 0.930698 17.8046 0.595643C18.565 0.22758 19.2899 0.0285176 19.9829 -0.000732422C20.0728 0.735393 19.9829 1.45933 19.6952 2.24177C19.4289 2.93344 19.0394 3.57746 18.5434 4.14627C18.0371 4.71171 17.4158 5.17634 16.7159 5.51289L16.7384 5.5137Z" fill="black"/>
</g>
<defs>
<clipPath id="clip0_16_124">
<rect width="27.6495" height="26" fill="white" transform="translate(0.686035)"/>
</clipPath>
</defs>
</svg>
