<svg width="29" height="26" viewBox="0 0 29 26" fill="none" xmlns="http://www.w3.org/2000/svg">
<path d="M7.3441 15.4656L6.46915 18.537L3.27124 18.6006C2.31553 16.9338 1.77344 15.0266 1.77344 13C1.77344 11.0403 2.28028 9.1922 3.17869 7.56494H3.17938L6.02642 8.05576L7.2736 10.7169C7.01257 11.4325 6.87029 12.2007 6.87029 13C6.87039 13.8675 7.03751 14.6987 7.3441 15.4656Z" fill="#FBBB00"/>
<path d="M26.6898 10.7922C26.8341 11.5071 26.9094 12.2455 26.9094 13C26.9094 13.8461 26.8148 14.6715 26.6345 15.4676C26.0227 18.1767 24.4241 20.5422 22.2095 22.2163L22.2088 22.2156L18.6228 22.0436L18.1153 19.0643C19.5848 18.2539 20.7332 16.9857 21.3381 15.4676H14.6177V10.7922H21.4361H26.6898Z" fill="#518EF8"/>
<path d="M22.2086 22.2158L22.2093 22.2164C20.0555 23.8444 17.3195 24.8184 14.3412 24.8184C9.55498 24.8184 5.39376 22.3028 3.271 18.6009L7.34385 15.4658C8.40521 18.1294 11.1377 20.0256 14.3412 20.0256C15.7181 20.0256 17.0081 19.6755 18.115 19.0645L22.2086 22.2158Z" fill="#28B446"/>
<path d="M22.3635 3.90265L18.292 7.03706C17.1464 6.3637 15.7922 5.97471 14.3414 5.97471C11.0655 5.97471 8.28185 7.95781 7.27366 10.7169L3.1794 7.565H3.17871C5.2704 3.77279 9.48411 1.18188 14.3414 1.18188C17.3909 1.18188 20.1869 2.20333 22.3635 3.90265Z" fill="#F14336"/>
</svg>
