<svg width="25" height="25" viewBox="0 0 25 25" fill="none" xmlns="http://www.w3.org/2000/svg">
<path d="M12.5196 3.18262C9.12683 3.18262 6.36958 5.93987 6.36958 9.33262V12.2949C6.36958 12.9201 6.10308 13.8734 5.78533 14.4064L4.60658 16.3641C3.87883 17.5736 4.38108 18.9164 5.71358 19.3674C10.1313 20.8434 14.8976 20.8434 19.3153 19.3674C20.5556 18.9574 21.0988 17.4916 20.4223 16.3641L19.2436 14.4064C18.9361 13.8734 18.6696 12.9201 18.6696 12.2949V9.33262C18.6696 5.95012 15.9021 3.18262 12.5196 3.18262Z" stroke="#6C41FA" stroke-width="1.5" stroke-miterlimit="10" stroke-linecap="round"/>
<path d="M14.4155 3.47998C14.0978 3.38773 13.7698 3.31598 13.4315 3.27498C12.4475 3.15198 11.5045 3.22373 10.623 3.47998C10.9203 2.72148 11.6583 2.18848 12.5193 2.18848C13.3803 2.18848 14.1183 2.72148 14.4155 3.47998Z" stroke="#6C41FA" stroke-width="1.5" stroke-miterlimit="10" stroke-linecap="round" stroke-linejoin="round"/>
<path d="M15.5943 19.7363C15.5943 21.4276 14.2106 22.8113 12.5193 22.8113C11.6788 22.8113 10.8998 22.4628 10.3463 21.9093C9.79284 21.3558 9.44434 20.5768 9.44434 19.7363" stroke="#6C41FA" stroke-width="1.5" stroke-miterlimit="10"/>
</svg>
