<svg width="27" height="28" viewBox="0 0 27 28" fill="none" xmlns="http://www.w3.org/2000/svg">
<g opacity="0.4">
<path d="M13.9082 12.8111C13.7989 12.8002 13.6677 12.8002 13.5474 12.8111C10.9453 12.7237 8.87891 10.5917 8.87891 7.96768C8.87891 5.28901 11.0437 3.11328 13.7333 3.11328C16.412 3.11328 18.5877 5.28901 18.5877 7.96768C18.5768 10.5917 16.5104 12.7237 13.9082 12.8111Z" stroke="#381C94" stroke-width="1.64" stroke-linecap="round" stroke-linejoin="round"/>
<path d="M8.44192 16.8456C5.79605 18.6168 5.79605 21.5032 8.44192 23.2634C11.4486 25.2752 16.3795 25.2752 19.3862 23.2634C22.0321 21.4922 22.0321 18.6058 19.3862 16.8456C16.3905 14.8448 11.4595 14.8448 8.44192 16.8456Z" stroke="#381C94" stroke-width="1.64" stroke-linecap="round" stroke-linejoin="round"/>
</g>
</svg>
