<svg width="30" height="30" viewBox="0 0 30 30" fill="none" xmlns="http://www.w3.org/2000/svg">
<path d="M23.75 11.25C23.75 13.0625 23.2125 14.725 22.2875 16.1125C20.9375 18.1125 18.8 19.525 16.3125 19.8875C15.8875 19.9625 15.45 20 15 20C14.55 20 14.1125 19.9625 13.6875 19.8875C11.2 19.525 9.0625 18.1125 7.7125 16.1125C6.7875 14.725 6.25 13.0625 6.25 11.25C6.25 6.4125 10.1625 2.5 15 2.5C19.8375 2.5 23.75 6.4125 23.75 11.25Z" stroke="white" stroke-linecap="round" stroke-linejoin="round"/>
<path d="M26.5624 23.0875L24.4999 23.575C24.0374 23.6875 23.6749 24.0375 23.5749 24.5L23.1374 26.3375C22.8999 27.3375 21.6249 27.6375 20.9624 26.85L14.9999 20L9.03735 26.8625C8.37485 27.65 7.09985 27.35 6.86235 26.35L6.42485 24.5125C6.31235 24.05 5.94985 23.6875 5.49985 23.5875L3.43735 23.1C2.48735 22.875 2.14985 21.6875 2.83735 21L7.71235 16.125C9.06235 18.125 11.1999 19.5375 13.6874 19.9C14.1124 19.975 14.5499 20.0125 14.9999 20.0125C15.4499 20.0125 15.8874 19.975 16.3124 19.9C18.7999 19.5375 20.9374 18.125 22.2874 16.125L27.1624 21C27.8499 21.675 27.5124 22.8625 26.5624 23.0875Z" stroke="white" stroke-linecap="round" stroke-linejoin="round"/>
<path d="M15.725 7.475L16.4625 8.94999C16.5625 9.14999 16.825 9.35 17.0625 9.3875L18.4 9.61249C19.25 9.74999 19.45 10.375 18.8375 10.9875L17.8 12.025C17.625 12.2 17.525 12.5375 17.5875 12.7875L17.8875 14.075C18.125 15.0875 17.5875 15.4875 16.6875 14.95L15.4375 14.2125C15.2125 14.075 14.8375 14.075 14.6125 14.2125L13.3625 14.95C12.4625 15.475 11.925 15.0875 12.1625 14.075L12.4625 12.7875C12.5125 12.55 12.425 12.2 12.25 12.025L11.2125 10.9875C10.6 10.375 10.8 9.76249 11.65 9.61249L12.9875 9.3875C13.2125 9.35 13.475 9.14999 13.575 8.94999L14.3125 7.475C14.675 6.675 15.325 6.675 15.725 7.475Z" stroke="white" stroke-linecap="round" stroke-linejoin="round"/>
</svg>
