<svg width="25" height="18" viewBox="0 0 25 18" fill="none" xmlns="http://www.w3.org/2000/svg">
<path d="M16.9606 2.31862L18.4 5.19736C18.594 5.59549 19.1146 5.97319 19.5535 6.05486L22.1567 6.48361C23.8206 6.75923 24.2086 7.96382 23.0142 9.16841L20.9827 11.1999C20.6458 11.5367 20.4519 12.2003 20.5642 12.6801L21.146 15.1913C21.6054 17.1717 20.5438 17.9476 18.7981 16.9063L16.3583 15.4567C15.9194 15.1913 15.1844 15.1913 14.7454 15.4567L12.3056 16.9063C10.56 17.9374 9.49834 17.1717 9.95772 15.1913L10.5396 12.6801C10.6519 12.2105 10.4579 11.547 10.1211 11.1999L8.08961 9.16841C6.89523 7.97403 7.28314 6.76944 8.9471 6.48361L11.5502 6.05486C11.9892 5.9834 12.5098 5.59549 12.7038 5.19736L14.1431 2.31862C14.9088 0.756748 16.1746 0.756748 16.9606 2.31862Z" stroke="white" stroke-linecap="round" stroke-linejoin="round"/>
<path d="M9.4165 2.10425H3.2915" stroke="white" stroke-linecap="round" stroke-linejoin="round"/>
<path d="M6.354 16.3958H3.2915" stroke="white" stroke-linecap="round" stroke-linejoin="round"/>
<path d="M4.3125 9.25H1.25" stroke="white" stroke-linecap="round" stroke-linejoin="round"/>
</svg>
